<svg width="275" height="293" viewBox="0 0 275 293" fill="none" xmlns="http://www.w3.org/2000/svg">
<path d="M112.478 10.3282C115.381 14.637 113.978 23.1239 112.864 28.7432C110.619 43.5639 100.185 55.6849 85.0195 55.6849C79.8672 55.6849 75.0474 54.2801 70.9272 51.8361C75.6052 61.0446 85.235 67.3655 96.3622 67.3655C112.079 67.3655 124.82 54.7625 124.82 39.2151C124.82 27.7241 120.499 17.0663 112.478 10.3282Z" fill="#0C2E85"/>
<path d="M124.039 107.203C119.711 104.329 117.768 95.9494 116.652 90.3304C113.07 75.7749 118.086 60.5888 132.103 54.7992C136.865 52.8324 141.856 52.2908 146.597 52.9769C138.758 46.2515 127.445 44.0857 117.16 48.3335C102.633 54.3335 95.669 70.8457 101.604 85.2156C105.991 95.8363 114.053 104.038 124.039 107.203Z" fill="#0C2E85"/>
<circle cx="92.6542" cy="34.1325" r="11.6769" fill="#0C2E85"/>
<path d="M41.3224 76.2746C46.5162 76.1409 52.9206 81.8836 57.0617 85.8419C68.3557 95.698 72.9737 111.01 64.8263 123.801C62.0583 128.147 58.2841 131.457 54.0092 133.619C64.2892 134.621 74.7938 129.895 80.7717 120.509C89.2154 107.253 85.4301 89.7367 72.3169 81.3842C62.625 75.2109 51.3147 73.1292 41.3224 76.2746Z" fill="#DE851D"/>
<path d="M129.241 118.568C124.492 120.674 116.38 117.812 111.041 115.734C96.8402 110.936 86.7266 98.5463 89.3739 83.6135C90.2732 78.5404 92.4978 74.0398 95.6236 70.4095C85.7398 73.4082 77.8351 81.7868 75.8927 92.7432C73.1491 108.219 83.3347 122.964 98.6433 125.678C109.958 127.684 121.206 125.29 129.241 118.568Z" fill="#DE851D"/>
<circle cx="50.7498" cy="105.783" r="11.6769" transform="rotate(-57.5047 50.7498 105.783)" fill="#DE851D"/>
<path d="M68.0138 178.128C69.8072 173.251 77.5089 169.42 82.7165 167.033C96.0463 160.176 111.981 161.538 120.86 173.833C123.877 178.01 125.56 182.74 125.991 187.511C130.717 178.327 130.204 166.82 123.689 157.799C114.487 145.057 96.8107 142.107 84.2066 151.21C74.8909 157.937 68.7801 167.68 68.0138 178.128Z" fill="#0C2E85"/>
<path d="M139.781 112.038C139.985 117.229 134.329 123.711 130.427 127.905C120.725 139.331 105.476 144.155 92.5763 136.181C88.1938 133.472 84.8326 129.743 82.613 125.498C81.7503 135.79 86.6182 146.23 96.0831 152.081C109.452 160.345 126.916 156.323 135.091 143.099C141.133 133.324 143.061 121.987 139.781 112.038Z" fill="#0C2E85"/>
<circle cx="98.918" cy="180.262" r="11.6769" transform="rotate(-125.836 98.918 180.262)" fill="#0C2E85"/>
<path d="M162.458 197.117C159.324 192.973 160.262 184.422 161.068 178.751C162.502 163.83 172.259 151.157 187.402 150.33C192.546 150.049 197.436 151.189 201.683 153.405C196.51 144.465 186.549 138.679 175.439 139.286C159.745 140.143 147.711 153.422 148.559 168.947C149.186 180.421 154.081 190.827 162.458 197.117Z" fill="#DE851D"/>
<path d="M145.63 101.017C150.108 103.651 152.506 111.912 153.926 117.462C158.297 131.8 154.117 147.237 140.437 153.783C135.789 156.007 130.835 156.82 126.063 156.393C134.258 162.681 145.672 164.227 155.71 159.424C169.888 152.64 175.941 135.773 169.231 121.748C164.271 111.383 155.774 103.633 145.63 101.017Z" fill="#DE851D"/>
<circle cx="180.954" cy="172.267" r="11.6769" transform="rotate(176.873 180.954 172.267)" fill="#DE851D"/>
<path d="M227.712 134.183C222.518 134.04 216.429 127.965 212.504 123.792C201.75 113.349 197.953 97.8127 206.769 85.473C209.765 81.2808 213.71 78.1757 218.093 76.2441C207.881 74.6971 197.14 78.8581 190.672 87.9119C181.535 100.7 184.383 118.393 197.033 127.432C206.383 134.112 217.566 136.792 227.712 134.183Z" fill="#0C2E85"/>
<path d="M142.167 87.2723C147.022 85.4216 154.97 88.712 160.191 91.0706C174.116 96.6174 183.557 109.527 180.119 124.298C178.951 129.316 176.49 133.692 173.176 137.151C183.205 134.682 191.544 126.736 194.067 115.898C197.629 100.59 188.243 85.3247 173.1 81.8003C161.908 79.1955 150.548 80.9874 142.167 87.2723Z" fill="#0C2E85"/>
<circle cx="219.867" cy="104.214" r="11.6769" transform="rotate(125.544 219.867 104.214)" fill="#0C2E85"/>
<path d="M210.136 37.0641C207.605 41.6012 199.401 44.1859 193.885 45.7323C179.649 50.4282 164.121 46.5999 157.266 33.0719C154.937 28.4761 154.012 23.5417 154.33 18.7617C148.23 27.0968 146.944 38.5439 151.974 48.4695C159.078 62.4894 176.079 68.1575 189.947 61.13C200.197 55.936 207.752 47.2647 210.136 37.0641Z" fill="#DE851D"/>
<path d="M129.481 96.11C130.089 90.9501 136.152 80.4835 140.66 76.9485C152.024 67.1739 167.838 64.7843 179.338 74.6708C183.245 78.0296 185.984 82.2369 187.515 86.7762C189.971 76.7438 186.789 65.6729 178.351 58.4191C166.433 48.173 148.556 49.4243 138.421 61.2139C130.93 69.9275 127.792 85.7715 129.481 96.11Z" fill="#DE851D"/>
<circle cx="179.942" cy="30.1406" r="11.6769" transform="rotate(63.1276 179.942 30.1406)" fill="#DE851D"/>
<path d="M24.735 259.478C28.227 259.478 31.2987 258.249 33.95 255.792C36.666 253.335 38.024 250.522 38.024 247.353C38.024 244.12 37.0217 241.145 35.017 238.429C32.8183 239.528 30.652 240.078 28.518 240.078C23.5387 240.078 21.049 238.526 21.049 235.422C21.049 234.517 21.6633 233.708 22.892 232.997C24.1207 232.221 25.8667 231.833 28.13 231.833C30.458 231.833 32.98 232.512 35.696 233.87C38.2827 231.089 39.576 227.953 39.576 224.461C39.576 220.128 37.6683 216.701 33.853 214.179C30.1023 211.592 26.0607 210.299 21.728 210.299C20.8227 210.299 20.1437 210.331 19.691 210.396C19.6263 212.271 19.4647 215.278 19.206 219.417C18.818 225.625 18.624 235.099 18.624 247.838C18.624 252.753 18.2683 255.21 17.557 255.21C14.7763 255.21 12.998 254.822 12.222 254.046C11.446 253.27 11.058 251.039 11.058 247.353C11.058 246.448 11.2197 242.729 11.543 236.198C11.931 229.667 12.125 224.396 12.125 220.387C12.125 216.378 12.2543 213.435 12.513 211.56C9.08567 212.724 7.24267 214.599 6.984 217.186C6.72533 219.32 6.24033 220.807 5.529 221.648C4.88233 222.489 3.977 222.909 2.813 222.909C1.71367 222.909 0.97 222.618 0.582 222.036C0.194 221.389 0 220.743 0 220.096C0 214.47 4.365 210.59 13.095 208.456C14.1943 204.059 15.9403 201.86 18.333 201.86C19.303 201.86 19.788 203.671 19.788 207.292C21.4693 207.098 23.5387 207.001 25.996 207.001C28.518 207.001 31.3957 207.486 34.629 208.456C37.8623 209.361 40.6753 211.01 43.068 213.403C45.4607 215.731 46.657 218.35 46.657 221.26C46.657 226.692 44.038 231.574 38.8 235.907C42.4213 238.752 44.232 242.147 44.232 246.092C44.232 250.037 43.0033 253.302 40.546 255.889C35.9547 260.61 29.8113 262.97 22.116 262.97C16.878 262.97 13.1273 262.614 10.864 261.903C10.4113 261.774 9.92633 261.45 9.409 260.933C8.95633 260.351 8.73 259.64 8.73 258.799C8.73 257.441 10.0557 256.762 12.707 256.762C13.5477 256.762 15.3907 257.215 18.236 258.12C21.0813 259.025 23.2477 259.478 24.735 259.478ZM32.98 236.295C31.04 234.678 29.197 233.87 27.451 233.87C25.7697 233.87 24.929 234.226 24.929 234.937C24.929 236.424 26.5133 237.168 29.682 237.168C30.846 237.168 31.9453 236.877 32.98 236.295ZM76.3254 262.485C73.8034 262.485 71.8957 261.968 70.6024 260.933C70.1497 260.48 69.9234 259.349 69.9234 257.538C69.9234 255.663 69.988 253.173 70.1174 250.069C68.436 254.272 66.7547 257.409 65.0734 259.478C63.4567 261.483 61.355 262.485 58.7684 262.485C56.1817 262.485 53.9184 261.289 51.9784 258.896C50.0384 256.439 49.0684 252.623 49.0684 247.45C49.0684 242.212 50.5234 237.588 53.4334 233.579C56.408 229.57 60.288 227.565 65.0734 227.565C67.1427 227.565 69.4707 228.923 72.0574 231.639C72.5747 230.928 73.48 230.087 74.7734 229.117C76.1314 228.082 77.263 227.565 78.1684 227.565C79.1384 227.565 79.6234 228.794 79.6234 231.251C79.6234 231.898 79.4294 233.159 79.0414 235.034C78.718 236.909 78.33 238.267 77.8774 239.108C77.2954 240.595 77.0044 245.866 77.0044 254.919C77.0044 256.665 77.1984 257.538 77.5864 257.538C78.6857 257.473 80.2054 256.115 82.1454 253.464C84.0854 250.748 85.993 247.288 87.8684 243.085C89.8084 238.882 90.9724 236.78 91.3604 236.78C91.813 236.78 92.0394 237.039 92.0394 237.556C92.0394 239.367 91.1017 242.244 89.2264 246.189C84.1177 257.053 79.8174 262.485 76.3254 262.485ZM64.4914 231.445C62.6807 231.445 60.7407 232.803 58.6714 235.519C56.6667 238.17 55.6644 241.307 55.6644 244.928C55.6644 248.549 56.1817 251.524 57.2164 253.852C58.3157 256.18 59.7384 257.344 61.4844 257.344C63.6184 257.344 66.7547 252.009 70.8934 241.339C70.958 240.822 71.0227 239.949 71.0874 238.72C71.2167 237.427 71.3137 236.457 71.3784 235.81C70.7964 234.775 69.7617 233.805 68.2744 232.9C66.8517 231.93 65.5907 231.445 64.4914 231.445ZM93.7672 256.762L93.8642 259.769C93.8642 261.58 93.3468 262.485 92.3122 262.485C90.7602 262.485 89.2728 262.291 87.8502 261.903C86.4275 261.45 85.7162 260.868 85.7162 260.157C85.7162 259.381 85.8778 256.827 86.2012 252.494C86.5892 248.097 86.7832 244.799 86.7832 242.6V236.877C86.7832 233.773 87.1065 231.898 87.7532 231.251C88.3998 230.604 89.5315 229.667 91.1482 228.438C92.8295 227.209 94.0258 226.595 94.7372 226.595C95.5132 226.595 95.9982 226.724 96.1922 226.983C96.3862 227.242 96.4832 227.727 96.4832 228.438C96.4832 231.865 95.8365 235.099 94.5432 238.138C94.2198 241.824 94.0582 244.378 94.0582 245.801C94.3168 245.413 95.6748 243.214 98.1322 239.205C100.59 235.196 102.659 232.253 104.34 230.378C106.086 228.503 107.638 227.565 108.996 227.565C110.354 227.565 111.551 228.018 112.585 228.923C113.685 229.828 114.234 230.96 114.234 232.318C114.234 235.163 113.911 239.367 113.264 244.928C112.682 250.425 112.391 253.917 112.391 255.404C112.391 256.827 112.585 257.538 112.973 257.538C114.073 257.473 115.592 256.115 117.532 253.464C119.472 250.748 121.38 247.288 123.255 243.085C125.195 238.882 126.359 236.78 126.747 236.78C127.2 236.78 127.426 237.039 127.426 237.556C127.426 239.367 126.489 242.244 124.613 246.189C119.505 257.053 115.204 262.485 111.712 262.485C109.19 262.485 107.283 261.968 105.989 260.933C105.537 260.48 105.31 259.316 105.31 257.441C105.31 255.501 105.472 252.397 105.795 248.129C106.183 243.796 106.377 240.563 106.377 238.429C106.377 236.295 105.989 235.228 105.213 235.228C104.502 235.228 102.562 237.459 99.3932 241.921C96.2245 246.318 94.5432 249.131 94.3492 250.36C93.9612 252.623 93.7672 254.757 93.7672 256.762ZM149.842 262.485C147.644 262.485 145.93 262 144.701 261.03C144.184 260.513 143.925 259.155 143.925 256.956C143.925 254.757 144.022 251.88 144.216 248.323C142.47 252.979 140.692 256.503 138.881 258.896C137.071 261.289 134.775 262.485 131.994 262.485C129.278 262.485 126.95 261.289 125.01 258.896C123.135 256.503 122.197 252.688 122.197 247.45C122.197 242.212 123.652 237.588 126.562 233.579C129.537 229.57 133.417 227.565 138.202 227.565C140.53 227.565 142.955 228.47 145.477 230.281C146.512 217.671 147.45 210.558 148.29 208.941C148.678 208.23 149.584 207.195 151.006 205.837C152.494 204.479 153.722 203.8 154.692 203.8C155.662 203.8 156.147 205.32 156.147 208.359C156.147 211.916 155.824 214.987 155.177 217.574C153.431 224.235 152.332 228.47 151.879 230.281C150.974 237.265 150.521 245.478 150.521 254.919C150.521 256.665 150.715 257.538 151.103 257.538C152.267 257.473 153.819 256.115 155.759 253.464C157.699 250.813 159.607 247.385 161.482 243.182C163.422 238.914 164.586 236.78 164.974 236.78C165.427 236.78 165.653 237.039 165.653 237.556C165.653 239.367 164.716 242.244 162.84 246.189C157.732 257.053 153.399 262.485 149.842 262.485ZM137.62 231.057C135.874 231.057 134.128 232.447 132.382 235.228C130.636 238.009 129.763 241.242 129.763 244.928C129.763 248.549 130.216 251.524 131.121 253.852C132.091 256.18 133.288 257.344 134.71 257.344C137.62 257.344 140.951 251.524 144.701 239.884C145.025 236.327 145.186 234.226 145.186 233.579C143.311 231.898 140.789 231.057 137.62 231.057ZM168.423 256.762L168.52 259.769C168.52 261.58 168.003 262.485 166.968 262.485C165.416 262.485 163.929 262.291 162.506 261.903C161.083 261.45 160.372 260.868 160.372 260.157C160.372 259.381 160.534 256.827 160.857 252.494C161.245 248.097 161.439 244.799 161.439 242.6V236.974C161.439 220.419 164.381 209.879 170.266 205.352C171.624 204.317 173.014 203.8 174.437 203.8C175.084 203.8 175.73 204.511 176.377 205.934C177.024 207.357 177.347 209.2 177.347 211.463C177.347 217.024 176.409 222.23 174.534 227.08C172.659 231.93 170.751 235.648 168.811 238.235C168.746 239.852 168.714 242.374 168.714 245.801C168.973 245.413 170.331 243.214 172.788 239.205C175.245 235.196 177.315 232.253 178.996 230.378C180.742 228.503 182.294 227.565 183.652 227.565C185.01 227.565 186.206 228.018 187.241 228.923C188.34 229.828 188.89 230.96 188.89 232.318C188.89 235.163 188.567 239.367 187.92 244.928C187.338 250.425 187.047 253.917 187.047 255.404C187.047 256.827 187.241 257.538 187.629 257.538C188.728 257.473 190.248 256.115 192.188 253.464C194.128 250.748 196.036 247.288 197.911 243.085C199.851 238.882 201.015 236.78 201.403 236.78C201.856 236.78 202.082 237.039 202.082 237.556C202.082 239.367 201.144 242.244 199.269 246.189C194.16 257.053 189.86 262.485 186.368 262.485C183.846 262.485 181.938 261.968 180.645 260.933C180.192 260.48 179.966 259.316 179.966 257.441C179.966 255.501 180.128 252.397 180.451 248.129C180.839 243.796 181.033 240.563 181.033 238.429C181.033 236.295 180.645 235.228 179.869 235.228C179.158 235.228 177.218 237.459 174.049 241.921C170.88 246.318 169.199 249.131 169.005 250.36C168.617 252.623 168.423 254.757 168.423 256.762ZM174.728 213.597C174.728 210.881 174.372 209.523 173.661 209.523C172.497 209.523 171.365 213.112 170.266 220.29C169.684 224.105 169.264 228.535 169.005 233.579C172.82 225.625 174.728 218.964 174.728 213.597ZM223.625 262.485C221.103 262.485 219.195 261.968 217.902 260.933C217.449 260.48 217.223 259.349 217.223 257.538C217.223 255.663 217.288 253.173 217.417 250.069C215.736 254.272 214.054 257.409 212.373 259.478C210.756 261.483 208.655 262.485 206.068 262.485C203.481 262.485 201.218 261.289 199.278 258.896C197.338 256.439 196.368 252.623 196.368 247.45C196.368 242.212 197.823 237.588 200.733 233.579C203.708 229.57 207.588 227.565 212.373 227.565C214.442 227.565 216.77 228.923 219.357 231.639C219.874 230.928 220.78 230.087 222.073 229.117C223.431 228.082 224.563 227.565 225.468 227.565C226.438 227.565 226.923 228.794 226.923 231.251C226.923 231.898 226.729 233.159 226.341 235.034C226.018 236.909 225.63 238.267 225.177 239.108C224.595 240.595 224.304 245.866 224.304 254.919C224.304 256.665 224.498 257.538 224.886 257.538C225.985 257.473 227.505 256.115 229.445 253.464C231.385 250.748 233.293 247.288 235.168 243.085C237.108 238.882 238.272 236.78 238.66 236.78C239.113 236.78 239.339 237.039 239.339 237.556C239.339 239.367 238.401 242.244 236.526 246.189C231.417 257.053 227.117 262.485 223.625 262.485ZM211.791 231.445C209.98 231.445 208.04 232.803 205.971 235.519C203.966 238.17 202.964 241.307 202.964 244.928C202.964 248.549 203.481 251.524 204.516 253.852C205.615 256.18 207.038 257.344 208.784 257.344C210.918 257.344 214.054 252.009 218.193 241.339C218.258 240.822 218.322 239.949 218.387 238.72C218.516 237.427 218.613 236.457 218.678 235.81C218.096 234.775 217.061 233.805 215.574 232.9C214.151 231.93 212.89 231.445 211.791 231.445ZM241.067 256.762L241.164 259.769C241.164 261.58 240.647 262.485 239.612 262.485C238.06 262.485 236.573 262.291 235.15 261.903C233.727 261.45 233.016 260.868 233.016 260.157C233.016 259.381 233.178 256.827 233.501 252.494C233.889 248.097 234.083 244.799 234.083 242.6V236.877C234.083 233.773 234.406 231.898 235.053 231.251C235.7 230.604 236.831 229.667 238.448 228.438C240.129 227.209 241.326 226.595 242.037 226.595C242.813 226.595 243.298 226.724 243.492 226.983C243.686 227.242 243.783 227.727 243.783 228.438C243.783 231.865 243.136 235.099 241.843 238.138C241.52 241.824 241.358 244.378 241.358 245.801C241.617 245.413 242.975 243.214 245.432 239.205C247.889 235.196 249.959 232.253 251.64 230.378C253.386 228.503 254.938 227.565 256.296 227.565C257.654 227.565 258.85 228.018 259.885 228.923C260.984 229.828 261.534 230.96 261.534 232.318C261.534 235.163 261.211 239.367 260.564 244.928C259.982 250.425 259.691 253.917 259.691 255.404C259.691 256.827 259.885 257.538 260.273 257.538C261.372 257.473 262.892 256.115 264.832 253.464C266.772 250.748 268.68 247.288 270.555 243.085C272.495 238.882 273.659 236.78 274.047 236.78C274.5 236.78 274.726 237.039 274.726 237.556C274.726 239.367 273.788 242.244 271.913 246.189C266.804 257.053 262.504 262.485 259.012 262.485C256.49 262.485 254.582 261.968 253.289 260.933C252.836 260.48 252.61 259.316 252.61 257.441C252.61 255.501 252.772 252.397 253.095 248.129C253.483 243.796 253.677 240.563 253.677 238.429C253.677 236.295 253.289 235.228 252.513 235.228C251.802 235.228 249.862 237.459 246.693 241.921C243.524 246.318 241.843 249.131 241.649 250.36C241.261 252.623 241.067 254.757 241.067 256.762Z" fill="#0C2E85"/>
</svg>
